<?xml version="1.0" encoding="utf-8"?>
<!-- Generator: Adobe Illustrator 16.0.0, SVG Export Plug-In . SVG Version: 6.00 Build 0)  -->
<!DOCTYPE svg PUBLIC "-//W3C//DTD SVG 1.1//EN" "http://www.w3.org/Graphics/SVG/1.1/DTD/svg11.dtd">
<svg version="1.1" xmlns="http://www.w3.org/2000/svg" xmlns:xlink="http://www.w3.org/1999/xlink" x="0px" y="0px" width="1584px"
	 height="1080px" viewBox="0 0 1584 1080" enable-background="new 0 0 1584 1080" xml:space="preserve">
<g id="logo" display="none">
	<path display="inline" fill="none" stroke="#FFFFFF" stroke-width="20" stroke-miterlimit="10" d="M434.09,797.389
		c0,31.527-25.557,61.113-57.082,61.113c-31.529,0-58.195-29.639-58.195-61.166c17.358-0.354,0,0,58.195,0
		C408.534,797.336,408.534,797.336,434.09,797.389z"/>

		<circle display="inline" fill="none" stroke="#FFFFFF" stroke-width="20" stroke-miterlimit="10" cx="377.007" cy="253.863" r="25.542"/>

		<line display="inline" fill="#FBB040" stroke="#FFFFFF" stroke-width="20" stroke-linecap="round" stroke-miterlimit="10" x1="208.48" y1="555.689" x2="288.697" y2="555.689"/>

		<line display="inline" fill="#FBB040" stroke="#FFFFFF" stroke-width="20" stroke-linecap="round" stroke-miterlimit="10" x1="190.685" y1="622.975" x2="288.697" y2="622.975"/>

		<line display="inline" fill="#FBB040" stroke="#FFFFFF" stroke-width="20" stroke-linecap="round" stroke-miterlimit="10" x1="208.48" y1="488.405" x2="288.697" y2="488.405"/>
	<path display="inline" fill="none" stroke="#FFFFFF" stroke-width="20" stroke-linecap="round" stroke-miterlimit="10" d="
		M202.215,463.85c0-98.958,78.256-179.178,174.791-179.178c96.534,0,174.792,80.221,174.792,179.178c0,0,2.328,43.954,5.496,79.967
		c2.627,29.865,7.205,63.969,14,85.248c25.333,79.332,60.501,79.078,60.501,79.078v89.277H381.007h-8.024H122.195v-89.277
		c0,0,35.168,0.254,60.501-79.078c6.795-21.279,11.373-55.383,14-85.248C199.864,507.803,202.215,463.85,202.215,463.85z"/>

		<line display="inline" fill="#FBB040" stroke="#FFFFFF" stroke-width="20" stroke-miterlimit="10" x1="120.696" y1="745.721" x2="631.483" y2="745.721"/>
</g>
<g id="new_x5F_logo">
	<g id="lines">
		<path fill="none" stroke="#FFFFFF" stroke-width="20" stroke-linecap="round" stroke-linejoin="round" stroke-miterlimit="10" d="
			M434.09,797.389c0,31.527-25.557,61.113-57.082,61.113c-31.529,0-58.195-29.639-58.195-61.166c17.358-0.354,0,0,58.195,0
			C408.534,797.336,408.534,797.336,434.09,797.389z"/>

			<circle fill="none" stroke="#FFFFFF" stroke-width="20" stroke-linecap="round" stroke-linejoin="round" stroke-miterlimit="10" cx="377.008" cy="258.868" r="25.542"/>

			<line fill="none" stroke="#FFFFFF" stroke-width="20" stroke-linecap="round" stroke-linejoin="round" stroke-miterlimit="10" x1="208.48" y1="555.689" x2="288.697" y2="555.689"/>

			<line fill="none" stroke="#FFFFFF" stroke-width="20" stroke-linecap="round" stroke-linejoin="round" stroke-miterlimit="10" x1="190.686" y1="622.975" x2="288.697" y2="622.975"/>

			<line fill="none" stroke="#FFFFFF" stroke-width="20" stroke-linecap="round" stroke-linejoin="round" stroke-miterlimit="10" x1="208.48" y1="488.405" x2="288.697" y2="488.405"/>
		<path fill="none" stroke="#FFFFFF" stroke-width="20" stroke-linecap="round" stroke-linejoin="round" stroke-miterlimit="10" d="
			M202.216,463.85c0-98.958,78.256-179.178,174.791-179.178c96.535,0,174.793,80.221,174.793,179.178c0,0,2.328,43.954,5.496,79.967
			c2.627,29.865,7.205,63.969,14,85.248c25.332,79.332,60.5,112.078,60.5,112.078v56.277H381.008h-8.025H122.195v-57.277
			c0,0,35.168-31.746,60.501-111.078c6.795-21.279,11.373-55.383,14-85.248C199.864,507.803,202.216,463.85,202.216,463.85z"/>

			<line fill="none" stroke="#FFFFFF" stroke-width="20" stroke-linecap="round" stroke-linejoin="round" stroke-miterlimit="10" x1="129.124" y1="745.721" x2="631.483" y2="745.721"/>
	</g>
	<g id="chevron" display="none">

			<path display="inline" fill="none" stroke="#FFFFFF" stroke-width="20" stroke-linecap="round" stroke-linejoin="round" stroke-miterlimit="10" d="
			M434.09,797.389c0,31.527-25.557,61.113-57.082,61.113c-31.529,0-58.195-29.639-58.195-61.166c17.358-0.354,0,0,58.195,0
			C408.534,797.336,408.534,797.336,434.09,797.389z"/>

			<circle display="inline" fill="none" stroke="#FFFFFF" stroke-width="20" stroke-linecap="round" stroke-linejoin="round" stroke-miterlimit="10" cx="377.008" cy="258.868" r="25.542"/>

			<path display="inline" fill="none" stroke="#FFFFFF" stroke-width="20" stroke-linecap="round" stroke-linejoin="round" stroke-miterlimit="10" d="
			M202.216,463.85c0-98.958,78.256-179.178,174.791-179.178c96.535,0,174.793,80.221,174.793,179.178c0,0,2.328,43.954,5.496,79.967
			c2.627,29.865,7.205,63.969,14,85.248c25.332,79.332,60.5,112.078,60.5,112.078v56.277H381.008h-8.025H122.195v-57.277
			c0,0,35.168-31.746,60.501-111.078c6.795-21.279,11.373-55.383,14-85.248C199.864,507.803,202.216,463.85,202.216,463.85z"/>

			<line display="inline" fill="none" stroke="#FFFFFF" stroke-width="20" stroke-linecap="round" stroke-linejoin="round" stroke-miterlimit="10" x1="129.124" y1="745.721" x2="631.483" y2="745.721"/>
		<polygon display="inline" fill="#FFFFFF" points="201.992,448.887 380.303,545 552.021,448.887 562.667,566 382.392,668.811
			190.779,568.888 		"/>
		<circle display="inline" fill="#FFFFFF" cx="380.233" cy="600.768" r="36"/>
		<circle display="inline" fill="#FFFFFF" cx="480.234" cy="552.813" r="36"/>
		<circle display="inline" fill="#FFFFFF" cx="275.234" cy="552.813" r="36"/>
	</g>
</g>
<g id="text" display="none">
	<rect x="718.304" y="282.671" display="inline" fill="none" width="744.696" height="526.329"/>
	<text transform="matrix(1 0 0 1 718.3037 401.2397)" display="inline"><tspan x="0" y="0" font-family="'Montserrat-Regular'" font-size="167" letter-spacing="-3">B</tspan><tspan x="87.173" y="0" font-family="'Montserrat-Regular'" font-size="167">ELL</tspan><tspan x="0" y="200.401" font-family="'Montserrat-Regular'" font-size="167" letter-spacing="-3">SEN</tspan><tspan x="264.357" y="200.401" font-family="'Montserrat-Regular'" font-size="167">I</tspan><tspan x="304.271" y="200.401" font-family="'Montserrat-Regular'" font-size="167" letter-spacing="-3">O</tspan><tspan x="415.992" y="200.401" font-family="'Montserrat-Regular'" font-size="167">R</tspan><tspan x="0" y="400.799" font-family="'Montserrat-Regular'" font-size="167">SOC</tspan><tspan x="294.25" y="400.799" font-family="'Montserrat-Regular'" font-size="167" letter-spacing="-6">I</tspan><tspan x="327.483" y="400.799" font-family="'Montserrat-Regular'" font-size="167">E</tspan><tspan x="409.646" y="400.799" font-family="'Montserrat-Regular'" font-size="167" letter-spacing="6">T</tspan><tspan x="499.323" y="400.799" font-family="'Montserrat-Regular'" font-size="167">Y</tspan></text>
</g>
<g id="outlines">
	<g>
		<path fill="#FFFFFF" d="M785.604,406.583h-51.102V289.851h45.424c7.904,0,14.722,0.947,20.458,2.839
			c5.732,1.895,9.991,4.454,12.775,7.682c5.344,6.012,8.016,12.804,8.016,20.374c0,9.13-2.896,15.922-8.684,20.374
			c-2.116,1.56-3.564,2.534-4.343,2.922c-0.78,0.392-2.171,1.031-4.175,1.92c7.236,1.561,12.997,4.817,17.284,9.77
			c4.285,4.955,6.43,11.105,6.43,18.454c0,8.128-2.784,15.309-8.35,21.543C812.769,402.967,801.524,406.583,785.604,406.583z
			 M754.208,338.28h25.05c14.249,0,21.376-4.843,21.376-14.529c0-5.566-1.728-9.574-5.178-12.024
			c-3.452-2.448-8.795-3.674-16.031-3.674h-25.217V338.28z M754.208,388.38h30.895c7.236,0,12.775-1.14,16.617-3.423
			c3.84-2.281,5.761-6.597,5.761-12.942c0-10.354-8.295-15.531-24.883-15.531h-28.39V388.38z"/>
		<path fill="#FFFFFF" d="M931.062,289.851v18.537h-62.291v30.895h55.944v17.535h-55.944v31.229h64.295v18.537h-84.001V289.851
			H931.062z"/>
		<path fill="#FFFFFF" d="M958.281,406.583V289.851h19.706v98.029h53.272v18.704H958.281z"/>
		<path fill="#FFFFFF" d="M1052.803,406.583V289.851h19.706v98.029h53.272v18.704H1052.803z"/>
		<path fill="#FFFFFF" d="M769.823,505.615c-5.735,0-10.438,1.169-14.111,3.507c-3.674,2.338-5.511,5.874-5.511,10.604
			c0,4.733,1.837,8.35,5.511,10.855c3.674,2.505,11.494,5.206,23.463,8.099c11.966,2.896,20.985,6.96,27.053,12.19
			c6.067,5.234,9.103,12.943,9.103,23.131c0,10.186-3.842,18.453-11.523,24.799c-7.683,6.346-17.759,9.52-30.227,9.52
			c-18.26,0-34.459-6.289-48.597-18.871l12.358-14.863c11.799,10.244,24.048,15.363,36.74,15.363c6.346,0,11.382-1.361,15.114-4.092
			c3.729-2.727,5.594-6.346,5.594-10.854c0-4.51-1.753-8.016-5.26-10.521c-3.507-2.506-9.548-4.785-18.12-6.848
			c-8.574-2.059-15.087-3.949-19.539-5.678c-4.454-1.725-8.407-3.979-11.857-6.764c-6.904-5.231-10.354-13.247-10.354-24.047
			c0-10.798,3.924-19.122,11.773-24.967c7.849-5.845,17.561-8.767,29.142-8.767c7.458,0,14.863,1.226,22.211,3.674
			c7.348,2.45,13.694,5.902,19.038,10.354l-10.521,14.863c-3.452-3.115-8.129-5.678-14.028-7.682
			C781.372,506.617,775.556,505.615,769.823,505.615z"/>
		<path fill="#FFFFFF" d="M918.368,490.251v18.537h-62.291v30.895h55.944v17.536h-55.944v31.229h64.295v18.537h-84.001V490.251
			H918.368z"/>
		<path fill="#FFFFFF" d="M1029.756,490.251h19.706v116.733h-21.376l-66.132-85.17v85.17h-19.706V490.251h19.706l67.802,87.175
			V490.251z"/>
		<path fill="#FFFFFF" d="M1078.52,490.251h19.706v116.733h-19.706V490.251z"/>
		<path fill="#FFFFFF" d="M1228.317,590.869c-11.802,11.521-26.386,17.283-43.754,17.283c-17.367,0-31.954-5.762-43.754-17.283
			c-11.802-11.523-17.702-25.887-17.702-43.087c0-17.201,5.9-31.563,17.702-43.086c11.8-11.523,26.387-17.284,43.754-17.284
			c17.368,0,31.952,5.761,43.754,17.284c11.8,11.523,17.702,25.885,17.702,43.086
			C1246.02,564.982,1240.117,579.346,1228.317,590.869z M1213.872,517.806c-7.961-8.238-17.73-12.358-29.309-12.358
			c-11.58,0-21.35,4.12-29.309,12.358c-7.961,8.241-11.94,18.232-11.94,29.977c0,11.747,3.979,21.739,11.94,29.978
			c7.959,8.24,17.729,12.357,29.309,12.357c11.578,0,21.348-4.117,29.309-12.357c7.959-8.238,11.94-18.23,11.94-29.978
			C1225.812,536.038,1221.831,526.046,1213.872,517.806z"/>
		<path fill="#FFFFFF" d="M1360.747,528.16c0,19.262-8.407,31.397-25.217,36.407l30.561,42.418h-25.05l-27.889-39.246h-25.885
			v39.246h-19.706V490.251h43.42c17.812,0,30.561,3.006,38.243,9.018C1356.906,505.281,1360.747,514.912,1360.747,528.16z
			 M1334.528,544.693c4.008-3.45,6.012-8.99,6.012-16.617c0-7.625-2.062-12.859-6.179-15.698c-4.12-2.839-11.468-4.258-22.044-4.258
			h-25.05v41.749h24.549C1322.948,549.869,1330.521,548.145,1334.528,544.693z"/>
		<path fill="#FFFFFF" d="M769.823,706.014c-5.735,0-10.438,1.17-14.111,3.508c-3.674,2.338-5.511,5.873-5.511,10.604
			c0,4.734,1.837,8.352,5.511,10.855c3.674,2.506,11.494,5.205,23.463,8.1c11.966,2.896,20.985,6.959,27.053,12.191
			c6.067,5.234,9.103,12.941,9.103,23.129s-3.842,18.453-11.523,24.801c-7.683,6.346-17.759,9.518-30.227,9.518
			c-18.26,0-34.459-6.287-48.597-18.871l12.358-14.863c11.799,10.246,24.048,15.365,36.74,15.365c6.346,0,11.382-1.363,15.114-4.092
			c3.729-2.727,5.594-6.346,5.594-10.855c0-4.508-1.753-8.016-5.26-10.521c-3.507-2.504-9.548-4.785-18.12-6.846
			c-8.574-2.059-15.087-3.951-19.539-5.678c-4.454-1.725-8.407-3.98-11.857-6.764c-6.904-5.232-10.354-13.248-10.354-24.049
			c0-10.797,3.924-19.121,11.773-24.967c7.849-5.844,17.561-8.768,29.142-8.768c7.458,0,14.863,1.227,22.211,3.674
			c7.348,2.451,13.694,5.904,19.038,10.355l-10.521,14.863c-3.452-3.117-8.129-5.68-14.028-7.684
			C781.372,707.016,775.556,706.014,769.823,706.014z"/>
		<path fill="#FFFFFF" d="M937.405,791.268c-11.802,11.523-26.386,17.285-43.754,17.285c-17.367,0-31.954-5.762-43.754-17.285
			c-11.802-11.523-17.702-25.885-17.702-43.086s5.9-31.562,17.702-43.086c11.8-11.523,26.387-17.285,43.754-17.285
			c17.368,0,31.952,5.762,43.754,17.285c11.8,11.523,17.702,25.885,17.702,43.086S949.205,779.744,937.405,791.268z M922.96,718.205
			c-7.961-8.238-17.73-12.357-29.309-12.357c-11.58,0-21.35,4.119-29.309,12.357c-7.961,8.24-11.94,18.232-11.94,29.977
			c0,11.748,3.979,21.738,11.94,29.977c7.959,8.24,17.729,12.357,29.309,12.357c11.578,0,21.348-4.117,29.309-12.357
			c7.959-8.238,11.94-18.229,11.94-29.977C934.9,736.438,930.919,726.445,922.96,718.205z"/>
		<path fill="#FFFFFF" d="M1033.263,789.514c6.79,0,12.635-1.141,17.535-3.424c4.898-2.279,10.021-5.928,15.364-10.938
			l12.692,13.025c-12.358,13.695-27.362,20.541-45.007,20.541c-17.647,0-32.288-5.678-43.921-17.033
			c-11.636-11.355-17.452-25.719-17.452-43.086c0-17.369,5.929-31.84,17.786-43.42c11.856-11.578,26.829-17.369,44.923-17.369
			c18.091,0,33.204,6.682,45.341,20.041l-12.525,13.693c-5.568-5.344-10.829-9.072-15.781-11.189
			c-4.955-2.113-10.771-3.172-17.452-3.172c-11.802,0-21.71,3.814-29.726,11.439c-8.016,7.627-12.024,17.367-12.024,29.225
			s3.979,21.768,11.94,29.727C1012.915,785.535,1022.351,789.514,1033.263,789.514z"/>
		<path fill="#FFFFFF" d="M1102.901,690.65h19.706v116.732h-19.706V690.65z"/>
		<path fill="#FFFFFF" d="M1230.322,690.65v18.537h-62.291v30.895h55.944v17.535h-55.944v31.229h64.295v18.537h-84.001V690.65
			H1230.322z"/>
		<path fill="#FFFFFF" d="M1301.63,708.686v98.697h-19.706v-98.697h-35.404V690.65h90.515v18.035H1301.63z"/>
		<path fill="#FFFFFF" d="M1411.013,807.383h-20.04v-46.092l-43.42-70.641h21.543l31.896,53.105l31.897-53.105h21.543l-43.42,70.641
			V807.383z"/>
	</g>
	<rect id="_x3C_Slice_x3E_" fill="none" width="1584" height="1080"/>
</g>
</svg>
